<svg width="10" height="10" viewBox="0 0 10 10" fill="none" xmlns="http://www.w3.org/2000/svg">
<g clip-path="url(#clip0_40_103)">
<path d="M5 0.15625C2.32486 0.15625 0.15625 2.32486 0.15625 5C0.15625 7.67514 2.32486 9.84375 5 9.84375C7.67514 9.84375 9.84375 7.67514 9.84375 5C9.84375 2.32486 7.67514 0.15625 5 0.15625ZM7.28777 6.92877C7.25668 6.96523 6.5109 7.82195 5.14225 7.82195C3.48811 7.82195 2.32029 6.58641 2.32029 4.97885C2.32029 3.3909 3.53131 2.17805 5.12814 2.17805C6.4359 2.17805 7.11965 2.90686 7.14811 2.93789C7.18317 2.97611 7.20457 3.02488 7.20894 3.07657C7.21332 3.12825 7.20043 3.17992 7.17229 3.2235L6.73518 3.90035C6.65609 4.02275 6.48568 4.04393 6.37904 3.94518C6.37449 3.941 5.8609 3.47877 5.17045 3.47877C4.26975 3.47877 3.72678 4.13453 3.72678 4.96475C3.72678 5.73822 4.2251 6.52123 5.1775 6.52123C5.9333 6.52123 6.4525 5.96775 6.45766 5.96215C6.55789 5.85346 6.73225 5.86385 6.81914 5.98271L7.29857 6.63842C7.32969 6.68098 7.34555 6.73278 7.34359 6.78547C7.34163 6.83815 7.32197 6.88864 7.28777 6.92877Z" fill="black"/>
</g>
<defs>
<clipPath id="clip0_40_103">
<rect width="10" height="10" fill="white"/>
</clipPath>
</defs>
</svg>
